<svg xmlns="http://www.w3.org/2000/svg" width="60" height="60" viewBox="0 0 60 60">
  <g id="Group_184" data-name="Group 184" transform="translate(-254 -7475)">
    <rect id="Rectangle_31" data-name="Rectangle 31" width="60" height="60" rx="10" transform="translate(254 7475)" fill="#fff"/>
    <g id="Icon_feather-instagram" data-name="Icon feather-instagram" transform="translate(268.209 7490)">
      <path id="Path_1" data-name="Path 1" d="M9.25,3h12.5A6.25,6.25,0,0,1,28,9.25v12.5A6.25,6.25,0,0,1,21.75,28H9.25A6.25,6.25,0,0,1,3,21.75V9.25A6.25,6.25,0,0,1,9.25,3Z" fill="none" stroke="#0864b1" stroke-linecap="round" stroke-linejoin="round" stroke-width="3"/>
      <path id="Path_2" data-name="Path 2" d="M22.011,16.2A5,5,0,1,1,17.8,11.989,5,5,0,0,1,22.011,16.2Z" transform="translate(-1.511 -1.489)" fill="none" stroke="#0864b1" stroke-linecap="round" stroke-linejoin="round" stroke-width="3"/>
      <path id="Path_3" data-name="Path 3" d="M26.25,9.75h0" transform="translate(-3.875 -1.125)" fill="none" stroke="#0864b1" stroke-linecap="round" stroke-linejoin="round" stroke-width="3"/>
    </g>
  </g>
</svg>
