<svg xmlns="http://www.w3.org/2000/svg" width="60" height="60" viewBox="0 0 60 60">
  <g id="Group_185" data-name="Group 185" transform="translate(-331 -7475)">
    <rect id="Rectangle_32" data-name="Rectangle 32" width="60" height="60" rx="10" transform="translate(331 7475)" fill="#fff"/>
    <path id="Icon_awesome-linkedin-in" data-name="Icon awesome-linkedin-in" d="M5.6,25H.413V8.309H5.6ZM3,6.033A3.016,3.016,0,1,1,6,3,3.027,3.027,0,0,1,3,6.033ZM24.994,25H19.823V16.875c0-1.936-.039-4.42-2.695-4.42-2.695,0-3.108,2.1-3.108,4.28V25H8.843V8.309h4.971v2.277h.073a5.446,5.446,0,0,1,4.9-2.7c5.246,0,6.21,3.454,6.21,7.941V25Z" transform="translate(348.159 7492.25)" fill="#0864b1"/>
  </g>
</svg>
