<svg xmlns="http://www.w3.org/2000/svg" width="60" height="60" viewBox="0 0 60 60">
  <g id="Group_179" data-name="Group 179" transform="translate(-408 -7475)">
    <rect id="Rectangle_33" data-name="Rectangle 33" width="60" height="60" rx="10" transform="translate(408 7475)" fill="#fff"/>
    <path id="Icon_awesome-youtube" data-name="Icon awesome-youtube" d="M27.486,7.47a3.393,3.393,0,0,0-2.387-2.4C22.993,4.5,14.55,4.5,14.55,4.5S6.107,4.5,4,5.068a3.393,3.393,0,0,0-2.387,2.4,35.589,35.589,0,0,0-.564,6.541,35.589,35.589,0,0,0,.564,6.541A3.342,3.342,0,0,0,4,22.917c2.106.568,10.549.568,10.549.568s8.443,0,10.549-.568a3.342,3.342,0,0,0,2.387-2.364,35.589,35.589,0,0,0,.564-6.541,35.59,35.59,0,0,0-.564-6.541Zm-15.7,10.555V10l7.057,4.015-7.057,4.014Z" transform="translate(420.599 7492)" fill="#0864b1"/>
  </g>
</svg>
